# xmcd
#
# Track frame offsets:
#	150
#	12697
#	29885
#	42837
#	54982
#	67607
#	80960
#	91620
#	107325
#	122480
#	133417
#
# Disc length: 1941 seconds
#
# Revision: 0
# Processed by: cddbd v1.5PL3 Copyright (c) Steve Scherf et al.
# Submitted via: audiograbber 1.83.01
#
DISCID=8e07930b
DTITLE=Grassoline - Mother Nature's Door
DYEAR=1990
DGENRE=Bluegrass
TTITLE0=Sweet Marie
TTITLE1=Mother Nature's Door
TTITLE2=A Home So Bright
TTITLE3=Too Late To Cry
TTITLE4=Hobson's Choice
TTITLE5=Smoky Mountain Memories
TTITLE6=This Is The Girl I Love
TTITLE7=Blue Virginia Blues
TTITLE8=Rockbridge Country
TTITLE9=Love Of The Mountains
TTITLE10=Going Home
EXTD=
EXTT0=
EXTT1=
EXTT2=
EXTT3=
EXTT4=
EXTT5=
EXTT6=
EXTT7=
EXTT8=
EXTT9=
EXTT10=
PLAYORDER=
